<?xml version="1.0" encoding="utf-8"?>
<!-- Generator: Adobe Illustrator 26.2.1, SVG Export Plug-In . SVG Version: 6.00 Build 0)  -->
<!DOCTYPE svg PUBLIC "-//W3C//DTD SVG 1.1//EN" "http://www.w3.org/Graphics/SVG/1.1/DTD/svg11.dtd" [
	<!ENTITY ns_extend "http://ns.adobe.com/Extensibility/1.0/">
	<!ENTITY ns_ai "http://ns.adobe.com/AdobeIllustrator/10.0/">
	<!ENTITY ns_graphs "http://ns.adobe.com/Graphs/1.0/">
	<!ENTITY ns_vars "http://ns.adobe.com/Variables/1.0/">
	<!ENTITY ns_imrep "http://ns.adobe.com/ImageReplacement/1.0/">
	<!ENTITY ns_sfw "http://ns.adobe.com/SaveForWeb/1.0/">
	<!ENTITY ns_custom "http://ns.adobe.com/GenericCustomNamespace/1.0/">
	<!ENTITY ns_adobe_xpath "http://ns.adobe.com/XPath/1.0/">
]>
<svg version="1.1" id="Calque_1" xmlns:x="&ns_extend;" xmlns:i="&ns_ai;" xmlns:graph="&ns_graphs;"
	 xmlns="http://www.w3.org/2000/svg" xmlns:xlink="http://www.w3.org/1999/xlink" x="0px" y="0px" viewBox="0 0 441.6 110"
	 enable-background="new 0 0 441.6 110" xml:space="preserve">
<metadata><?xpacket begin="﻿" id="W5M0MpCehiHzreSzNTczkc9d"?>
<x:xmpmeta xmlns:x="adobe:ns:meta/" x:xmptk="Adobe XMP Core 7.1-c000 79.b0f8be9, 2021/12/08-19:11:22        ">
   <rdf:RDF xmlns:rdf="http://www.w3.org/1999/02/22-rdf-syntax-ns#">
      <rdf:Description rdf:about=""
            xmlns:xmp="http://ns.adobe.com/xap/1.0/"
            xmlns:xmpGImg="http://ns.adobe.com/xap/1.0/g/img/"
            xmlns:xmpTPg="http://ns.adobe.com/xap/1.0/t/pg/"
            xmlns:stDim="http://ns.adobe.com/xap/1.0/sType/Dimensions#"
            xmlns:xmpG="http://ns.adobe.com/xap/1.0/g/"
            xmlns:illustrator="http://ns.adobe.com/illustrator/1.0/"
            xmlns:dc="http://purl.org/dc/elements/1.1/"
            xmlns:xmpMM="http://ns.adobe.com/xap/1.0/mm/"
            xmlns:stRef="http://ns.adobe.com/xap/1.0/sType/ResourceRef#"
            xmlns:stEvt="http://ns.adobe.com/xap/1.0/sType/ResourceEvent#"
            xmlns:pdf="http://ns.adobe.com/pdf/1.3/">
         <xmp:CreatorTool>Adobe Illustrator 26.2 (Macintosh)</xmp:CreatorTool>
         <xmp:CreateDate>2022-06-03T15:50:42+02:00</xmp:CreateDate>
         <xmp:MetadataDate>2022-06-03T15:50:42+02:00</xmp:MetadataDate>
         <xmp:ModifyDate>2022-06-03T15:50:42+02:00</xmp:ModifyDate>
         <xmp:Thumbnails>
            <rdf:Alt>
               <rdf:li rdf:parseType="Resource">
                  <xmpGImg:width>256</xmpGImg:width>
                  <xmpGImg:height>60</xmpGImg:height>
                  <xmpGImg:format>JPEG</xmpGImg:format>
                  <xmpGImg:image>/9j/4AAQSkZJRgABAgEASABIAAD/7QAsUGhvdG9zaG9wIDMuMAA4QklNA+0AAAAAABAASAAAAAEA&#xA;AQBIAAAAAQAB/+4ADkFkb2JlAGTAAAAAAf/bAIQABgQEBAUEBgUFBgkGBQYJCwgGBggLDAoKCwoK&#xA;DBAMDAwMDAwQDA4PEA8ODBMTFBQTExwbGxscHx8fHx8fHx8fHwEHBwcNDA0YEBAYGhURFRofHx8f&#xA;Hx8fHx8fHx8fHx8fHx8fHx8fHx8fHx8fHx8fHx8fHx8fHx8fHx8fHx8fHx8f/8AAEQgAPAEAAwER&#xA;AAIRAQMRAf/EAaIAAAAHAQEBAQEAAAAAAAAAAAQFAwIGAQAHCAkKCwEAAgIDAQEBAQEAAAAAAAAA&#xA;AQACAwQFBgcICQoLEAACAQMDAgQCBgcDBAIGAnMBAgMRBAAFIRIxQVEGE2EicYEUMpGhBxWxQiPB&#xA;UtHhMxZi8CRygvElQzRTkqKyY3PCNUQnk6OzNhdUZHTD0uIIJoMJChgZhJRFRqS0VtNVKBry4/PE&#xA;1OT0ZXWFlaW1xdXl9WZ2hpamtsbW5vY3R1dnd4eXp7fH1+f3OEhYaHiImKi4yNjo+Ck5SVlpeYmZ&#xA;qbnJ2en5KjpKWmp6ipqqusra6voRAAICAQIDBQUEBQYECAMDbQEAAhEDBCESMUEFURNhIgZxgZEy&#xA;obHwFMHR4SNCFVJicvEzJDRDghaSUyWiY7LCB3PSNeJEgxdUkwgJChgZJjZFGidkdFU38qOzwygp&#xA;0+PzhJSktMTU5PRldYWVpbXF1eX1RlZmdoaWprbG1ub2R1dnd4eXp7fH1+f3OEhYaHiImKi4yNjo&#xA;+DlJWWl5iZmpucnZ6fkqOkpaanqKmqq6ytrq+v/aAAwDAQACEQMRAD8A9U4q7FXYq07pGjO7BUUV&#xA;ZjsABhAJNBEpACzyYtf+abu5m+raUh3NBJx5O3+qvYfPNni0UYjiyPPajtWc5cGEfHqor5Z1y8/e&#xA;Xk4UntI5dvwqPxyZ1mKG0Q1jsvUZd5y+Ztc3k3UIjzt7pC46faQ/eK4Br4HmEnsXLHeMhfyWJq+v&#xA;6PKsd8jSxHp6hrUf5Mgr+OE4MWUXHY/joxjrNTpjWQWPP9BZRp+o21/bieBqjoyn7SnwIzWZcUoG&#xA;i9Bp9TDNHiiicrb3Yq7FXYq7FXYq7FXYq7FXYq7FXYq7FXYq7FXYq7FXYq7FXYq7FXYq7FXYql2t&#xA;a1DpkAJHOd/7qP5dz7ZkafTnIfJwddro4I98jyDHov8AFOrD1UkaOE9CG9JPopuc2B8DFtVn5ulj&#xA;+c1G4JEfkFl3pHmZIvRdpLiFyAVWQuta7VB3w48+EmxQPuY5tHqwOEkyifO2Q6fp9lounyTSEVjQ&#xA;yXM9Kmijk1PYUzXZ85yHyd7otHHBGh9XUsAik80+e76cw3BsNGhbjQEhaHopCkeo9NzU0Htlewcv&#xA;mr3n5eeYtGia/wBE1R554QWaJQ0TsBvRQGcP/qnrg4gVpkfk7zDF5o0aWG+jU3VvSO6UCgao+GQe&#xA;BND07jCJGBsMJ445ImMhYQY9by9rYXkWtZKVJ/ajJ/WubXbUYv6X6XmhxaLUf0D936wzUEEVG4Oa&#xA;Z6p2KuxV2KuxV2KuxV2KuxV2KuxV2KuxV2KuxV2KuxV2KuxV2KuxV2KuxVzMFBZjRRuSegGKCaYX&#xA;K0WreaVQsHt+XFadCsaliB8yDm4jeLBfX9by8zHUayruP6AGaKqqoVQAoFABsABmnJeoArYOxSkX&#xA;nlmXylqZBofSpt4FgDhjzQUu/K1FXynGQKFppSx8TUD9Qwy5rFl2RSxbyt5Ol0TWdSvfXVra6JFv&#xA;CoIopbn8Vf5egpkibQAmvmJtKt9Ok1DUofWhsxzAWvKpIFBuOpp12yePLKP0mrac+mx5K4xdLfLf&#xA;mWw1+ye6tFeMRuY5I5AAwNAexOxBysim4FT8zebNN8vRQPdrJI9wSI44gC1FpyY8iooKjEC1JTSz&#xA;u4Ly0hu7duUM6LJG3+SwqMCUHPr9nDqaacwf1WKqXAHEM/2R1r3GZMdLIw4+jg5O0MccwxG7/Wku&#xA;vfmPo+j6nLp8kE000PH1GjC8QWAanxMOxygRc0lL/wDlb+if8sVz/wAk/wDmrDwI4k88u+ddL1yC&#xA;7lhjlh+pqHlWQCvAgmo4k/ynEQJIHeiWQRiZHkHXPnXS7fS7jUJI5eFuyIYgByYyGi03p2PfLc2m&#xA;ljIvq4uk10M4PDYpLdP/ADU8uXVwsMyTWgcgCWUKUBP8xViR92U8JcziZVfX8FnZtdSVaNaU47k1&#xA;NBTJYsZnLhDVqM8cUDOXIJdJ5psEsorvhIRKzIEAFQV613p3GZA0UzIx22cGXa2MYxOjuaXaf5n0&#xA;68mEI5QyNsgkAox8AQTvgy6OcBfMMtP2riyy4d4nzVtV1y001o1mV3aSpAQDYDuakZDBppZLro26&#xA;vXwwECVm0wR1dFdd1YAg+xyginMBsWEug1+zm1N9PVXEqllDkDiWT7Q617HMiWlkIcfRwcfaEJZT&#xA;iF3v9jrXX7O51F7FA4kQsA5A4kp1pvXGellGHEeScXaGOeU4xdj9CZZjOc7FXYq7FXYq7FXYqxPz&#xA;HqNxe3w0m0qVDBZAP2n8D7Lm10mIQj4knnO0tTLLk8GH9p/Ym+j+X7TT1WQj1Lqm8p7Eih4jtmJn&#xA;1Usm3KLs9H2dDDvzn3/qTXMV2DsVYVrlhrs9/cBo5ZoGY+mFqycK/CKDbNxp8mIQHK3ltbh1JyyN&#xA;SIvau5Ax6VrcS8IreeNOvFQwH3DLvFxd8XF/L6nun9qMis9RFoyy2t41z6ilZFZgPT/aFN9/8/nX&#xA;LJDi2Mapvhhy8FGOTivz5K0trdVuTBa3yMxX6mSzfD/NyyAnHazDzbZYp+rhjkHLh35MhvNOfUNC&#xA;ksLuhlnt/TkbwkK/a+ht81cyOI1yejxCXABL6q397zf8qr97PX7rS5gVNyhHA9RLASaf8CWwyTFA&#xA;/mdqn13zM8CmsViiwjw5fac/e1PoxiNlLMfyy1qKTytLFO9P0Yz8ye0RrICf+GH0ZGQ3SCoeS/M0&#xA;vmPX7p7qxhRYI/VgnQNyWjBVVqkhjQ9adssOSQjwg7NJ0+OU+MgcXexbzDbw3P5mG3nXnDNe20cq&#xA;Gu6t6YYbeIORHJtPN6CfJHkhW4mxiDDqDI9f+J5HiLKgmumaDpGlxSRWFqkEc396BU8qCm5Yknrg&#xA;sqQKpTk0vy+9pLZSRQtbzEGWIkbkdO9du2TnllLmWrFp4YwREVbzv8x9C8r6bbWr6YEhvHfi8Ebl&#xA;wY+JJYglqUagHjjElmQzTySDd+S7Bb1fUVo2Qh/5EkZU+5VFMHEYysc0ThGUaluE1fTdHe2W2aKM&#xA;woaqlaUPjWtcsGbIDxWbaDpsBgIEDhDE/Mtpp1reRrYkAlayIpqFIO2+/XNppJzlE8TznaeHFjmP&#xA;D+Kv5saRzYNJ/eNAC/zNK5DQgDirvbe1yTwE8+Flts6LawhmA/dr1NOwzVTHqPvekxSAgL7gxHTC&#xA;D5wYjcGe4/U+bXN/i/wH6Hm9L/jx/rT/AEt6J/ylT/683/G2Oo/uPkuh/wAcPvl+lmead6l2KuxV&#xA;2KuxV2KuxViHlBBPqVxcybyKpIr/ADOdzm2154YCIea7Gjx5ZTPOvvZfmpeldirsVYZrMnmIalOF&#xA;NwsfI+kIuYTh+z9nbp1zcacYeAfTfm8trZarxZVx10q6r4IL1fMf89598uXcOH+j9ji8eq78n+yR&#xA;EUmqfVSZZdQ+s+otAvqcfT/a6nrlZEOLYQqvLm3xlm4Nzl4r8+SvLJeVufQk1IsCv1MNzIP83LIA&#xA;R2sQ8+TbKU/VwnN04ef2sstDObWE3G0/BfV/1qfF0981U64jXJ6PDxcA4vqoX73kXm5JfL3n0ahC&#xA;vwPIl5Go25Bj+8X/AGTBskNwk813kHSf0/ruoXd78aelKZm/4suuSfqLHGRpQkNtqN9oq6tpn2Wu&#xA;UNrOPBkkFT/wPJfpw80PR/yn0v6toUt8y0kvpDxP/FcVVH/DcshIsosV1j/yakf/ADH2v648kOSD&#xA;zTG9/KXVpr6aVb+Fo5JC/OQP6lGNakAEV+nBxp4WcanBJYeT7uBZWeW10+RBPuGLRwEc/ntXIjml&#xA;5F5W8oX3mL619Vmih+q8Ofq8t/U5UpxB/kywmmICt5k8h6voNol5PJFPbswRmiLVVj0qGA2OIlak&#xA;M8sdV/SH5fQTKgiZAsDomyj03C7DwIAOX6QfvQ6/tU/4Ofh96G0vy5dajbG4ilRFDFKNWtRTwHvm&#xA;wzauOOVEOi0vZs80OIEBN9O8nJFMst5KJQhqIkHwkjxJ/VmJl19ioinZ6bsURlczfkhvO3+9Vt/q&#xA;H9eW9nfSXH7c+uPuVr/yxdX0qXMU6BXjjHF67cUA2pXwyGLWRgOEjqW7UdlzykTEhuBz9yW6BA0H&#xA;mWOBiC0TyoxHQlUYZkaqXFhJ76/Q4HZ8DDVCJ6GQ+wq+if8AKVP/AK83/G2Q1H9x8m3Q/wCOH3y/&#xA;SzPNO9S7FVOS5t45EikkVJJP7tCQC3yGSECRYGzCWWMSASLPJdJJHGjSSMERRVnYgAD3JyLNStr+&#xA;xuiwtrmKcr9r0nV6fPiTiqotxA0zwrIjTRgGSMMCyg9KjqK4q6a4gh4+tIkfNgic2C8mPRRXqT4Y&#xA;qw/TZRo3mCWCb4YHJj5HoFY1Rs3GaPjYgRz/ABby+mn+V1JjL6Tt+oszzTvUOxV2KsK1rUdcj1Kd&#xA;PUlijViIlSoXh+ydutRm50+LEYA0C8rrtTqBlkLkBe1dyB/Sut/8tE/3tl3g4u4OJ+b1H86SJh1G&#xA;7NqWlvrpbn1FARQSvpn7RrUb/wCfyrlijxbRjVfa3w1M+C5TnxX9is9/cB7n6vf3bshX6mpUnnvv&#xA;yH9mQGIULjHzbTqJXLhnM19O3Nl9q0zW0TTjjMUUyr4MRv8AjmpmBxGuT0uIyMAZfVW/vYT+a+iz&#xA;XenWt/bxtJJaOUlCAk+nIK8jTsrL+OGJZSCO/LPRpNO8verPG0dxeSGVlcUYIPhQEH5V+nBI7pDD&#xA;vzE8t3q+aTLaW7ypqPFo+Ckj1fssu3f4eX05KJ2YkPVNKsI9P021sY6cbeJY6juVFCfpO+Vlm8k8&#xA;6xalYeeZr+OBiUlhuLZypKMUVCOnX4locsHJgeaJ/wCVnecf+WeH/kS//NWPCFssi0LXvMPmLy7r&#xA;sV5aAOLaSO1eNGTm8kbjgAxNTWnTxwEAFILBPL3mHXvLxuVsoBW44CUSxsxBj5UpQrT7RyRFoBRu&#xA;oaz5z82elYG3Z4w4b04YiicugZ2NaAV7mmCgF3LPl8vyaV5KTTkHqzR0ecoK1dn5OR7Dp8hl+kkB&#xA;lBLg9pwJwEAXy+9MfKUUsek/vFKFpGZQRSooBX8MOukDk27mHY8DHDuK3TnMN2jFfOdtcST2zxxs&#xA;68StVBO9em2bTs+YANl57tvFIyiQLZNbKy28SsKMqKCPcDNbM7l32IVEDyYrp1pcjzdI5iYIsszl&#xA;iDTiwYKa+9c2mWcfy4F9A87psM/zpNGuKR+dqenW97D5hupVgZjF67gEEA1DcRX/ACjhyyicIF86&#xA;Y6bHkjqZSETtxH76+bR8164CQYkBHUcG/rh/JYu/7UHtbUdw+RUvNHmbVoPJr3PE291czi2SVAVI&#xA;RlLl1r02UrXMHPijGdRNu60Oonlx8UxRtOtJ8pWdnaWKTSyXE9oKmVmJDMW59D+yG6DIR1EogxHI&#xA;s8ujhknGcucUh1u3k8y+eDoFxM8WmadALiWJDT1GIQ1/5KAe29OuVjYOSdyo+bfKdh5esBr2gs9j&#xA;dWToWUOzq6uwSnxlj1bcVpTEG1ISPUdX1W3853evWMZYQwWs93CDsYZYIgyn2qw+XXDWyOqzzBrl&#xA;/wCYNTtNTWNotHgu47a0V9iXJ5MxAqK0G/htiBSkvTNe0KPUog6EJdRikbnoR/K2XabUnGf6Lg9o&#xA;aAZxY2mPxSRWuuavo5FrewmSNdlV9iB/kvuCMzp6bHl9US6jFrs2m9GQWPP9BTJfOmm0+KGYHuAF&#xA;I/4kMxj2fPvDnjtzF1Evs/W3/jTS/wDfU/8AwKf814/yfPvH4+Cf5bw90vs/W7/Gml/76n/4FP8A&#xA;mvH+T594/HwX+W8PdL7P1u/xppf++p/+BT/mvH+T594/HwX+W8PdL7P1u/xppf8Avqf/AIFP+a8f&#xA;5Pn3j8fBf5bw90vs/W7/ABppf++p/wDgU/5rx/k+fePx8F/lvD3S+z9bv8aaX/vqf/gU/wCa8f5P&#xA;n3j8fBH8t4e6X2frQsvnOV5FSztOVT0cksfYKuWR7PAFyLRPtsk1CP4+CNR/MLa2jMhSxYAsvwlQ&#xA;pXcV68gcpIwjF/ScmMtSdQLFY/s5fenmYTt3Yq7FXYq7FXYq7FXYq7FXYq7FXYq7FXYq7FUt8x6H&#xA;b63pM2nzNw50aKUCpR13Vqd/fCDSCGMW8X5pWduunxLaTxx0SO+c1fiOhNWFdvFK4dkbovzB5X1t&#xA;9Qttd0adE1iGNY7mNto5gBQ+3tQ/gRiCkhAXGieePMskVvrwg0/TInDyxQEFpKeFGk/E7eGGwEUS&#xA;m+neW7iDzdqt/JHH+jLq2it4Y6g1CoiMpXwHp9/HATsmlTX9GiFpYWtlpsUsFvOJUiUFVR1NQaKV&#xA;2NTWuX6eMDfGacLW5M0APCjxb7sizGc5SufqvpH616fpd/Vpx/4bbJw4r9N35NeXgr11Xmk7/wCD&#xA;+Rr9Xr/k9Pw2zLH5j+k6yX5K/wCBb/zp3/FH44f8I80f4D/Rd/zp3/FH44/4R5r/AID/AEXf86d/&#xA;xR+OP+Eea/4D/Rd/zp3/ABR+OP8AhHmv+A/0Xf8AOnf8Ufjj/hHmv+A/0Xf86d/xR+OP+Eea/wCA&#xA;/wBFNLD9E0P1H0ff0uNfppvmNl8T+K/i5+n8H/J8PwpF5S5LsVdirsVdirsVdirsVdirsVdirsVd&#xA;irsVdirsVdirsVdirsVdirsVf//Z</xmpGImg:image>
               </rdf:li>
            </rdf:Alt>
         </xmp:Thumbnails>
         <xmpTPg:NPages>1</xmpTPg:NPages>
         <xmpTPg:HasVisibleTransparency>False</xmpTPg:HasVisibleTransparency>
         <xmpTPg:HasVisibleOverprint>False</xmpTPg:HasVisibleOverprint>
         <xmpTPg:MaxPageSize rdf:parseType="Resource">
            <stDim:w>441.626374</stDim:w>
            <stDim:h>109.978022</stDim:h>
            <stDim:unit>Pixels</stDim:unit>
         </xmpTPg:MaxPageSize>
         <xmpTPg:PlateNames>
            <rdf:Seq>
               <rdf:li>Cyan</rdf:li>
               <rdf:li>Magenta</rdf:li>
               <rdf:li>Yellow</rdf:li>
               <rdf:li>Black</rdf:li>
            </rdf:Seq>
         </xmpTPg:PlateNames>
         <xmpTPg:SwatchGroups>
            <rdf:Seq>
               <rdf:li rdf:parseType="Resource">
                  <xmpG:groupName>Groupe de nuances par défaut</xmpG:groupName>
                  <xmpG:groupType>0</xmpG:groupType>
               </rdf:li>
            </rdf:Seq>
         </xmpTPg:SwatchGroups>
         <illustrator:CreatorSubTool>AIRobin</illustrator:CreatorSubTool>
         <dc:format>image/svg+xml</dc:format>
         <dc:title>
            <rdf:Alt>
               <rdf:li xml:lang="x-default">logo-webphl-anime-2020</rdf:li>
            </rdf:Alt>
         </dc:title>
         <xmpMM:RenditionClass>proof:pdf</xmpMM:RenditionClass>
         <xmpMM:DocumentID>xmp.did:6e1fe3a8-6ba7-4ed0-8df8-8b305328cf75</xmpMM:DocumentID>
         <xmpMM:InstanceID>xmp.iid:6e1fe3a8-6ba7-4ed0-8df8-8b305328cf75</xmpMM:InstanceID>
         <xmpMM:OriginalDocumentID>xmp.did:71e489cc-ccbf-5b4e-a5a0-b1d35409c7ff</xmpMM:OriginalDocumentID>
         <xmpMM:DerivedFrom rdf:parseType="Resource">
            <stRef:instanceID>xmp.iid:c4671ae2-b440-408d-bfd3-745f217e70c8</stRef:instanceID>
            <stRef:documentID>xmp.did:c4671ae2-b440-408d-bfd3-745f217e70c8</stRef:documentID>
            <stRef:originalDocumentID>xmp.did:71e489cc-ccbf-5b4e-a5a0-b1d35409c7ff</stRef:originalDocumentID>
            <stRef:renditionClass>proof:pdf</stRef:renditionClass>
         </xmpMM:DerivedFrom>
         <xmpMM:History>
            <rdf:Seq>
               <rdf:li rdf:parseType="Resource">
                  <stEvt:action>saved</stEvt:action>
                  <stEvt:instanceID>xmp.iid:71e489cc-ccbf-5b4e-a5a0-b1d35409c7ff</stEvt:instanceID>
                  <stEvt:when>2020-01-09T11:13:57+01:00</stEvt:when>
                  <stEvt:softwareAgent>Adobe Illustrator 24.0 (Windows)</stEvt:softwareAgent>
                  <stEvt:changed>/</stEvt:changed>
               </rdf:li>
               <rdf:li rdf:parseType="Resource">
                  <stEvt:action>saved</stEvt:action>
                  <stEvt:instanceID>xmp.iid:6e1fe3a8-6ba7-4ed0-8df8-8b305328cf75</stEvt:instanceID>
                  <stEvt:when>2022-06-03T15:50:42+02:00</stEvt:when>
                  <stEvt:softwareAgent>Adobe Illustrator 26.2 (Macintosh)</stEvt:softwareAgent>
                  <stEvt:changed>/</stEvt:changed>
               </rdf:li>
            </rdf:Seq>
         </xmpMM:History>
         <pdf:Producer>Adobe PDF library 15.00</pdf:Producer>
      </rdf:Description>
   </rdf:RDF>
</x:xmpmeta>
                                                                                                    
                                                                                                    
                                                                                                    
                                                                                                    
                                                                                                    
                                                                                                    
                                                                                                    
                                                                                                    
                                                                                                    
                                                                                                    
                                                                                                    
                                                                                                    
                                                                                                    
                                                                                                    
                                                                                                    
                                                                                                    
                                                                                                    
                                                                                                    
                                                                                                    
                                                                                                    
                           
<?xpacket end="w"?>
	</metadata>
<path fill="#8B919A" stroke="#8B919A" stroke-miterlimit="10" d="M91.9,21.4h-1.2c-9.6,0-17.3,7.8-17.3,17.3v9.8h5.4V38.3
	c0-3.2,1.3-6.1,3.5-8.3c2.2-2.2,5.2-3.4,8.4-3.3h1.2c3.2-0.1,6.2,1.1,8.4,3.3c2.2,2.2,3.5,5.1,3.5,8.3v1.1c0,1.4,1.3,2.7,2.7,2.7
	s2.7-1.3,2.7-2.7v-0.7C109.1,29.2,101.4,21.4,91.9,21.4"/>
<path fill="#6CDEFF" d="M69.1,76.3c-2.7,0-5,2.2-5,5c0,2.7,2.2,5,5,5h42.9c2.7,0,5-2.2,5-5c0-2.7-2.2-5-5-5H69.1"/>
<g>
	<path fill="#FFFFFF" d="M110.3,78.8c1.4,0,2.5,1.1,2.5,2.5c0,1.4-1.1,2.5-2.5,2.5c-1.4,0-2.5-1.1-2.5-2.5
		C107.9,79.9,109,78.8,110.3,78.8"/>
	<path fill="#FFFFFF" d="M103.2,78.8c1.4,0,2.5,1.1,2.5,2.5c0,1.4-1.1,2.5-2.5,2.5c-1.4,0-2.5-1.1-2.5-2.5
		C100.7,79.9,101.8,78.8,103.2,78.8"/>
	<path fill="#FFFFFF" d="M96,78.8c1.4,0,2.5,1.1,2.5,2.5c0,1.4-1.1,2.5-2.5,2.5c-1.4,0-2.5-1.1-2.5-2.5C93.5,79.9,94.6,78.8,96,78.8
		"/>
</g>
<path fill="#6CDEFF" d="M69.1,62.4c-2.7,0-5,2.2-5,5c0,2.7,2.2,5,5,5h42.9c2.7,0,5-2.2,5-5c0-2.7-2.2-5-5-5H69.1"/>
<g>
	<path fill="#FFFFFF" d="M110.3,64.9c1.4,0,2.5,1.1,2.5,2.5c0,1.4-1.1,2.5-2.5,2.5c-1.4,0-2.5-1.1-2.5-2.5
		C107.9,66,109,64.9,110.3,64.9"/>
	<path fill="#FFFFFF" d="M103.2,64.9c1.4,0,2.5,1.1,2.5,2.5c0,1.4-1.1,2.5-2.5,2.5c-1.4,0-2.5-1.1-2.5-2.5
		C100.7,66,101.8,64.9,103.2,64.9"/>
	<path fill="#FFFFFF" d="M96,64.9c1.4,0,2.5,1.1,2.5,2.5c0,1.4-1.1,2.5-2.5,2.5c-1.4,0-2.5-1.1-2.5-2.5C93.5,66,94.6,64.9,96,64.9"
		/>
</g>
<path fill="#6CDEFF" d="M111.9,58.4c2.7,0,5-2.2,5-5c0-2.7-2.2-5-5-5H69.1c-2.7,0-5,2.2-5,5c0,2.7,2.2,5,5,5H111.9"/>
<g>
	<path fill="#FFFFFF" d="M110.3,50.7c1.4,0,2.5,1.1,2.5,2.5c0,1.4-1.1,2.5-2.5,2.5c-1.4,0-2.5-1.1-2.5-2.5
		C107.9,51.8,109,50.7,110.3,50.7"/>
	<path fill="#FFFFFF" d="M103.2,50.7c1.4,0,2.5,1.1,2.5,2.5c0,1.4-1.1,2.5-2.5,2.5c-1.4,0-2.5-1.1-2.5-2.5
		C100.7,51.8,101.8,50.7,103.2,50.7"/>
	<path fill="#FFFFFF" d="M96,50.7c1.4,0,2.5,1.1,2.5,2.5c0,1.4-1.1,2.5-2.5,2.5c-1.4,0-2.5-1.1-2.5-2.5C93.5,51.8,94.6,50.7,96,50.7
		"/>
</g>
<path fill="#6CDEFF" d="M431.1,98.1c-1.8,0-3.2-1.4-3.2-3.2s1.4-3.2,3.2-3.2c1.8,0,3.1,1.4,3.1,3.2S432.9,98.1,431.1,98.1"/>
<path fill="#8B919A" d="M433.2,74.4L433.2,74.4c-0.1-0.3-0.1-0.6-0.3-0.8v-0.1c-0.1-0.2-0.3-0.4-0.5-0.6c-0.2-0.2-0.5-0.3-0.7-0.3
	h-0.1c-0.2,0-0.3-0.1-0.5-0.1h-0.3h-0.1c-0.3,0-0.5,0.1-0.7,0.3H430c-0.2,0.1-0.4,0.3-0.6,0.5l-7.3,9.9l-7.3-9.9
	c-0.2-0.2-0.4-0.4-0.6-0.5h-0.1c-0.2-0.1-0.5-0.2-0.7-0.3h-0.1h-0.3c-0.2,0-0.3,0-0.5,0.1h-0.1c-0.3,0.1-0.5,0.2-0.7,0.3
	c-0.2,0.2-0.4,0.4-0.5,0.6v0.1c-0.1,0.2-0.2,0.5-0.3,0.7v0.1v0.3v19.9c0,1.2,1,2.1,2.1,2.1c1.2,0,2.1-1,2.1-2.1V81.3l5.1,7
	c0.1,0.1,0.2,0.1,0.3,0.2c0.1,0.1,0.1,0.2,0.2,0.2h0.1c0.1,0.1,0.3,0.1,0.4,0.2c0.1,0,0.2,0.1,0.4,0.1h0.4h0.4
	c0.1,0,0.3-0.1,0.4-0.1c0.1-0.1,0.3-0.1,0.4-0.2h0.1c0.1-0.1,0.1-0.2,0.2-0.3c0.1-0.1,0.2-0.1,0.3-0.2l5.1-7v7.5
	c0,1.2,1,2.1,2.1,2.1s2.1-1,2.1-2.1v-14C433.3,74.6,433.2,74.5,433.2,74.4"/>
<path fill="#8B919A" d="M396.8,72.6c-6.7,0-12.1,5.4-12.1,12.1c0,6.7,5.4,12.1,12.1,12.1c6.7,0,12.1-5.4,12.1-12.1
	C408.9,78,403.5,72.6,396.8,72.6 M396.8,92.5c-4.3,0-7.8-3.5-7.8-7.8c0-4.3,3.5-7.8,7.8-7.8s7.8,3.5,7.8,7.8
	C404.6,89,401.1,92.5,396.8,92.5"/>
<path fill="#6CDEFF" d="M376.4,78.4c-1.8,0-3.1-1.4-3.1-3.2s1.4-3.2,3.1-3.2s3.2,1.4,3.2,3.2S378.1,78.4,376.4,78.4"/>
<path fill="#8B919A" d="M379.4,91.2c-1.4,0.9-3.2,1.4-5,1.2c-3.7-0.4-6.6-3.3-7-7c-0.3-3.1,1.2-5.9,3.6-7.4c0.9-0.6,1.2-1.6,0.9-2.6
	c-0.5-1.3-2-1.7-3.2-1.1c-3.6,2.3-5.9,6.5-5.6,11.2c0.5,6,5.4,10.8,11.4,11.1c2.6,0.1,5.1-0.6,7.1-1.8c1.2-0.8,1.4-2.5,0.3-3.5
	C381.3,90.9,380.2,90.8,379.4,91.2"/>
<path fill="#6CDEFF" d="M355.5,78.4h-11.7c-2.2,0-4,1.7-4,4c0,2.2,1.7,4,4,4h11.7c2.2,0,4-1.7,4-4C359.5,80.1,357.7,78.4,355.5,78.4
	"/>
<path fill="#6CDEFF" d="M333.3,41.9c-2.2,0-4,1.7-4,4v36.5c0,2.2,1.7,4,4,4c2.2,0,4-1.7,4-4V45.9C337.3,43.7,335.5,41.9,333.3,41.9"
	/>
<path fill="#6CDEFF" d="M261.9,49.8c2.2,0,4-1.7,4-4c0-2.2-1.7-4-4-4c-2.2,0-4,1.7-4,4C258,48.1,259.8,49.8,261.9,49.8"/>
<path fill="#6CDEFF" d="M276.1,41.9h-3.6c-2.2,0-4,1.7-4,4c0,2.2,1.7,4,4,4h3.6c2.8,0,5.1,2.4,5.1,5.2s-2.3,5.1-5.1,5.1h-14.2
	c-2.2,0-4,1.7-4,4v18.2c0,2.2,1.7,4,4,4c2.2,0,4-1.7,4-4V68.1h10.2c7.2,0,13-5.9,13-13C289.2,47.8,283.4,41.9,276.1,41.9"/>
<path fill="#6CDEFF" d="M298.1,41.9c-2.2,0-4,1.7-4,4v36.5c0,2.2,1.7,4,4,4c2.2,0,4-1.7,4-4V45.9C302.1,43.7,300.4,41.9,298.1,41.9"
	/>
<path fill="#6CDEFF" d="M320.4,41.9c-2.2,0-4,1.7-4,4v14.3h-7.7c-2.2,0-4,1.7-4,4c0,2.2,1.7,4,4,4h7.7v14.3c0,2.2,1.7,4,4,4
	c2.2,0,4-1.7,4-4V45.9C324.3,43.7,322.6,41.9,320.4,41.9"/>
<path fill="#6CDEFF" d="M177.2,42.1c-2.1-0.7-4.3,0.5-5,2.6c-0.7,2.1,0.5,4.3,2.6,5c2.1,0.7,4.3-0.5,5-2.6
	C180.4,45,179.3,42.8,177.2,42.1"/>
<path fill="#8B919A" d="M174,52.3c-2.1-0.7-4.3,0.5-5,2.6l-4.6,14.4l-7.8-24.6c0-0.1-0.1-0.2-0.1-0.3c-0.1-0.1-0.1-0.3-0.2-0.4
	c-0.1-0.1-0.1-0.2-0.2-0.3c-0.1-0.1-0.1-0.2-0.2-0.3c-0.1-0.1-0.2-0.2-0.3-0.3c-0.1-0.1-0.2-0.2-0.3-0.3c-0.1-0.1-0.2-0.2-0.3-0.2
	c-0.1-0.1-0.2-0.1-0.3-0.2c-0.1-0.1-0.3-0.1-0.4-0.2c-0.1,0-0.2-0.1-0.3-0.1c-0.2-0.1-0.3-0.1-0.5-0.1c-0.1,0-0.2,0-0.3-0.1h-0.4
	h-0.4c-0.1,0-0.2,0-0.3,0.1c-0.2,0-0.3,0.1-0.5,0.1c-0.1,0-0.2,0.1-0.3,0.1c-0.1,0.1-0.3,0.1-0.4,0.2c-0.1,0.1-0.2,0.1-0.3,0.2
	c-0.1,0.1-0.2,0.1-0.3,0.2l-0.3,0.3c-0.1,0.1-0.2,0.2-0.3,0.3c-0.1,0.1-0.2,0.2-0.2,0.3c-0.1,0.1-0.1,0.2-0.2,0.3s-0.1,0.3-0.2,0.4
	c0,0.1-0.1,0.2-0.1,0.3l-7.8,24.6l-7.8-24.6c-0.7-2.1-2.9-3.3-5-2.6c-2.1,0.7-3.2,2.9-2.6,5l11.7,36.5c0,0.1,0.1,0.2,0.1,0.3
	c0.1,0.1,0.1,0.3,0.2,0.4c0.1,0.1,0.1,0.2,0.2,0.3c0.1,0.1,0.1,0.2,0.2,0.3c0.1,0.1,0.2,0.2,0.3,0.3c0.1,0.1,0.2,0.2,0.3,0.3
	c0.1,0.1,0.2,0.2,0.3,0.2c0.1,0.1,0.2,0.1,0.3,0.2c0.1,0.1,0.3,0.1,0.4,0.2c0.1,0,0.2,0.1,0.3,0.1c0.2,0.1,0.3,0.1,0.5,0.1
	c0.1,0,0.2,0,0.3,0.1h0.4h0.4c0.1,0,0.2,0,0.3-0.1c0.2,0,0.3-0.1,0.5-0.1c0.1,0,0.2-0.1,0.3-0.1c0.1-0.1,0.3-0.1,0.4-0.2
	c0.1-0.1,0.2-0.1,0.3-0.2c0.1-0.1,0.2-0.1,0.3-0.2c0.1-0.1,0.2-0.2,0.3-0.3c0.1-0.1,0.2-0.2,0.3-0.3c0.1-0.1,0.2-0.2,0.2-0.3
	c0.1-0.1,0.1-0.2,0.2-0.3c0.1-0.1,0.1-0.3,0.2-0.4c0-0.1,0.1-0.2,0.1-0.3l7.8-24.6l7.8,24.6c0,0.1,0.1,0.2,0.1,0.3
	c0.1,0.1,0.1,0.3,0.2,0.4c0.1,0.1,0.1,0.2,0.2,0.3s0.1,0.2,0.2,0.3c0.1,0.1,0.2,0.2,0.3,0.3c0.1,0.1,0.2,0.2,0.3,0.3
	c0.1,0.1,0.2,0.2,0.3,0.2c0.1,0.1,0.2,0.1,0.3,0.2c0.1,0.1,0.3,0.1,0.4,0.2c0.1,0,0.2,0.1,0.3,0.1c0.2,0.1,0.3,0.1,0.5,0.1
	c0.1,0,0.2,0,0.3,0.1h0.4h0.4c0.1,0,0.2,0,0.3-0.1c0.2,0,0.3-0.1,0.5-0.1c0.1,0,0.2-0.1,0.3-0.1c0.1-0.1,0.3-0.1,0.4-0.2
	c0.1-0.1,0.2-0.1,0.3-0.2s0.2-0.1,0.3-0.2c0.1-0.1,0.2-0.2,0.3-0.3c0.1-0.1,0.2-0.2,0.3-0.3c0.1-0.1,0.2-0.2,0.2-0.3
	c0.1-0.1,0.2-0.2,0.2-0.3c0.1-0.1,0.1-0.3,0.2-0.4c0-0.1,0.1-0.2,0.1-0.3l8.4-26.3C177.2,55.2,176,53,174,52.3"/>
<g>
	<path fill="#8B919A" d="M199.6,60.1c-2.2,0-4,1.7-4,4c0,2.2,1.7,4,4,4h6.4c2.2,0,4-1.7,4-4c0-2.2-1.7-4-4-4H199.6z"/>
	<path fill="#8B919A" d="M215.2,45.9c0-2.2-1.7-4-4-4H189c-2.2,0-4,1.7-4,4v36.5c0,2.2,1.7,4,4,4h22.2c2.2,0,4-1.7,4-4s-1.7-4-4-4
		H193V49.8h18.2C213.5,49.8,215.2,48.1,215.2,45.9"/>
</g>
<path fill="#8B919A" d="M248,63.7c2.1-2.3,3.4-5.4,3.4-8.8c0-7.2-5.9-13-13-13h-3.6c-2.2,0-4,1.7-4,4c0,2.2,1.7,4,4,4h3.6
	c2.8,0,5.1,2.4,5.1,5.2c0,2.8-2.3,5.1-5.1,5.1h-14.2c-2.2,0-4,1.7-4,4v18.3c0,2.2,1.7,4,4,4h14.9c7.2,0,13-5.9,13-13
	C252.2,69.5,250.5,66.1,248,63.7 M228.2,78.4V68.1h10.9v0.1c2.8,0,5.1,2.3,5.1,5.1c0,2.8-2.2,5-4.9,5.1H228.2z"/>
<path fill="#6CDEFF" d="M225.4,42.1c-2.1-0.7-4.3,0.5-5,2.6c-0.7,2.1,0.5,4.3,2.6,5c2.1,0.7,4.3-0.5,5-2.6
	C228.7,45,227.6,42.8,225.4,42.1"/>
<path fill="none" d="M362.5,89.9v7.9H144.6v-7.9H362.5z"/>
<g>
	<circle id="svg-ico_1_" fill="#6CDEFF" cx="148.7" cy="93.9" r="4"/>
	
		<animateMotion  accumulate="none" additive="replace" begin="0s" calcMode="paced" dur="6s" fill="remove" path="M210,0 0 0 210,0" repeatCount="indefinite" restart="always">
		</animateMotion>
</g>
<path fill="#6CDEFF" d="M141.6,93.1c-1.1-1-2.6-1.1-3.9-0.5c-4,2-8.5,3.1-13.4,3.1h-81C28.3,95.7,16,84.6,16,71
	c0-8.9,5.4-17.2,14.1-21.6l2.1-1.1L32,46c0-0.4-0.1-0.9-0.1-1.2c0-8.6,7.8-15.6,17.5-15.6c2.8,0,5.5,0.6,8,1.8l2.8,1.3l1.6-2.6
	c5.9-9.4,16.9-15.2,28.8-15.2c14.4,0,26.9,8.5,31.3,20.3c0.7,1.9,2.8,2.8,4.6,2l0.1,0c1.7-0.8,2.5-2.7,1.8-4.4
	C123,17.7,108,7.4,90.6,7.4c-13.3,0-25.7,6.1-33.1,16.1c-2.6-0.9-5.3-1.3-8.2-1.3c-13.3,0-24.2,9.9-24.5,22.1C15,50.1,9,60.1,9,71
	c0,17.5,15.4,31.7,34.4,31.7h81c6,0,11.6-1.4,16.5-3.8C143.1,97.8,143.5,94.8,141.6,93.1L141.6,93.1z"/>
</svg>
